<svg xmlns="http://www.w3.org/2000/svg" xmlns:xlink="http://www.w3.org/1999/xlink" width="1316.486" height="133.436" viewBox="0 0 1316.486 133.436">
  <defs>
    <linearGradient id="linear-gradient" x1="-0.006" y1="0.43" x2="0.918" y2="1" gradientUnits="objectBoundingBox">
      <stop offset="0" stop-color="#1a0724"/>
      <stop offset="1" stop-color="#7b0080"/>
    </linearGradient>
  </defs>
  <path id="logo_vaivo_dark" d="M205.991-23.136H336.108l-56.292,38.2L139.549,110.3H70.707L21.982,8.24,6.848-23.136H99.683l33.59,70.318L93.592,77.451,134.38,49.582,191.6,10.824,214.67-5.048ZM321.343,83.91h99.848L406.426,53.088,370.436,77.45ZM526.576,110.3H227.585L378.557,7.686,394.43,27.8,383.356,4.548,370.067-23.136h92.65ZM595.6-23.136H728.488L644.143,110.3H538.758L604.093,6.579l14.58,18.272L607.415,1.6Zm340.149,0h130.117l-56.292,38.2L869.309,110.3H800.467L751.743,8.24,736.609-23.136h92.835l33.59,70.318L823.353,77.451l40.788-27.869,57.214-38.758,23.07-15.872Zm122,0H1302.11l12.55,26.208v.185l8.674,18.272L1284.02,83.91h.369L1267.78,110.3H1030.06l-12.55-26.392,48.909-77.332,14.4,18.272L1069.56,1.6ZM1185.1,83.91l50.939-80.654h-62.013L1126.59,78.189,1083.4,83.91Z" transform="translate(-6.848 23.136)" fill="url(#linear-gradient)"/>
</svg>
